<?xml version="1.0" encoding="UTF-8" standalone="no"?>
<!DOCTYPE svg PUBLIC "-//W3C//DTD SVG 1.1//EN" "http://www.w3.org/Graphics/SVG/1.1/DTD/svg11.dtd">
<svg width="100%" height="100%" viewBox="0 0 618 477" version="1.1" xmlns="http://www.w3.org/2000/svg" xmlns:xlink="http://www.w3.org/1999/xlink" xml:space="preserve" xmlns:serif="http://www.serif.com/" style="fill-rule:evenodd;clip-rule:evenodd;stroke-linejoin:round;stroke-miterlimit:2;">
    <g transform="matrix(1,0,0,1,-807.077,-840.137)">
        <g transform="matrix(1,0,0,1,-44.3125,167.719)">
            <g transform="matrix(55.5231,0,0,55.5231,-46597.8,-36662.3)">
                <g transform="matrix(12,0,0,12,862.594,681.008)">
                </g>
                <text x="854.591px" y="681.008px" style="font-family:'Arial-BoldMT', 'Arial', sans-serif;font-weight:700;font-size:12px;fill:white;">V</text>
            </g>
            <g transform="matrix(55.5231,0,0,55.5231,-46424.5,-36662.3)">
                <path d="M859.507,681.008L858.502,681.008L861.531,672.418L862.583,672.418L859.507,681.008Z" style="fill:rgb(190,56,242);fill-rule:nonzero;"/>
            </g>
            <g transform="matrix(55.5231,0,0,55.5231,-46509.3,-36662.3)">
                <path d="M859.507,681.008L858.502,681.008L861.531,672.418L862.583,672.418L859.507,681.008Z" style="fill:rgb(190,56,242);fill-rule:nonzero;"/>
            </g>
        </g>
    </g>
</svg>
